<?xml version="1.0" encoding="utf-8"?>
<!-- Generator: Adobe Illustrator 27.5.0, SVG Export Plug-In . SVG Version: 6.00 Build 0)  -->
<svg version="1.1" xmlns="http://www.w3.org/2000/svg" xmlns:xlink="http://www.w3.org/1999/xlink" x="0px" y="0px"
	 viewBox="0 0 500 500" style="enable-background:new 0 0 500 500;" xml:space="preserve">
<g id="BACKGROUND">
	<g>
		<rect style="fill:#C1C9FC;" width="500" height="500"/>
	</g>
</g>
<g id="OBJECTS">
	<g>
		<g>
			<g>
				<path style="fill:#A0A8FB;" d="M458.505,320.52c0-1.397,1.133-2.53,2.53-2.53c1.397,0,2.53,1.133,2.53,2.53
					c0,1.397-1.133,2.53-2.53,2.53C459.638,323.05,458.505,321.917,458.505,320.52z"/>
			</g>
			<g>
				<path style="fill:#A0A8FB;" d="M458.505,300.264c0-1.397,1.133-2.53,2.53-2.53c1.397,0,2.53,1.133,2.53,2.53
					c0,1.397-1.133,2.53-2.53,2.53C459.638,302.793,458.505,301.661,458.505,300.264z"/>
			</g>
			<g>
				<path style="fill:#A0A8FB;" d="M458.505,280.008c0-1.397,1.133-2.53,2.53-2.53c1.397,0,2.53,1.133,2.53,2.53
					s-1.133,2.53-2.53,2.53C459.638,282.537,458.505,281.405,458.505,280.008z"/>
			</g>
			<g>
				<g>
					<path style="fill:#A0A8FB;" d="M458.505,259.751c0-1.397,1.133-2.53,2.53-2.53c1.397,0,2.53,1.133,2.53,2.53
						c0,1.397-1.133,2.53-2.53,2.53C459.638,262.281,458.505,261.148,458.505,259.751z"/>
				</g>
			</g>
		</g>
		<g>
			<g>
				<path style="fill:#A0A8FB;" d="M438.249,320.52c0-1.397,1.133-2.53,2.53-2.53c1.397,0,2.53,1.133,2.53,2.53
					c0,1.397-1.133,2.53-2.53,2.53C439.382,323.05,438.249,321.917,438.249,320.52z"/>
			</g>
			<g>
				<path style="fill:#A0A8FB;" d="M438.249,300.264c0-1.397,1.133-2.53,2.53-2.53c1.397,0,2.53,1.133,2.53,2.53
					c0,1.397-1.133,2.53-2.53,2.53C439.382,302.793,438.249,301.661,438.249,300.264z"/>
			</g>
			<g>
				<path style="fill:#A0A8FB;" d="M438.249,280.008c0-1.397,1.133-2.53,2.53-2.53c1.397,0,2.53,1.133,2.53,2.53
					s-1.133,2.53-2.53,2.53C439.382,282.537,438.249,281.405,438.249,280.008z"/>
			</g>
			<g>
				<g>
					<path style="fill:#A0A8FB;" d="M438.249,259.751c0-1.397,1.133-2.53,2.53-2.53c1.397,0,2.53,1.133,2.53,2.53
						c0,1.397-1.133,2.53-2.53,2.53C439.382,262.281,438.249,261.148,438.249,259.751z"/>
				</g>
			</g>
		</g>
		<g>
			<g>
				<circle style="fill:#A0A8FB;" cx="420.523" cy="320.52" r="2.53"/>
			</g>
			<g>
				<circle style="fill:#A0A8FB;" cx="420.523" cy="300.264" r="2.53"/>
			</g>
			<g>
				<path style="fill:#A0A8FB;" d="M417.993,280.008c0-1.397,1.133-2.53,2.53-2.53c1.397,0,2.53,1.133,2.53,2.53
					s-1.133,2.53-2.53,2.53C419.125,282.537,417.993,281.405,417.993,280.008z"/>
			</g>
			<g>
				<g>
					<path style="fill:#A0A8FB;" d="M417.993,259.751c0-1.397,1.133-2.53,2.53-2.53c1.397,0,2.53,1.133,2.53,2.53
						c0,1.397-1.133,2.53-2.53,2.53C419.125,262.281,417.993,261.148,417.993,259.751z"/>
				</g>
			</g>
		</g>
		<g>
			<path style="fill:#A0A8FB;" d="M458.505,238.92c0-1.397,1.133-2.53,2.53-2.53c1.397,0,2.53,1.133,2.53,2.53
				c0,1.397-1.133,2.53-2.53,2.53C459.638,241.449,458.505,240.317,458.505,238.92z"/>
		</g>
		<g>
			<path style="fill:#A0A8FB;" d="M438.249,238.92c0-1.397,1.133-2.53,2.53-2.53c1.397,0,2.53,1.133,2.53,2.53
				c0,1.397-1.133,2.53-2.53,2.53C439.382,241.449,438.249,240.317,438.249,238.92z"/>
		</g>
		<g>
			<path style="fill:#A0A8FB;" d="M417.993,238.92c0-1.397,1.133-2.53,2.53-2.53c1.397,0,2.53,1.133,2.53,2.53
				c0,1.397-1.133,2.53-2.53,2.53C419.125,241.449,417.993,240.317,417.993,238.92z"/>
		</g>
	</g>
	<g>
		<g>
			<g>
				<path style="fill:#A0A8FB;" d="M105.507,197.971c0-1.397,1.133-2.53,2.53-2.53c1.397,0,2.53,1.133,2.53,2.53
					c0,1.397-1.133,2.53-2.53,2.53C106.639,200.5,105.507,199.368,105.507,197.971z"/>
			</g>
			<g>
				<path style="fill:#A0A8FB;" d="M105.507,177.714c0-1.397,1.133-2.53,2.53-2.53c1.397,0,2.53,1.133,2.53,2.53
					c0,1.397-1.133,2.53-2.53,2.53C106.639,180.244,105.507,179.111,105.507,177.714z"/>
			</g>
			<g>
				<path style="fill:#A0A8FB;" d="M105.507,157.458c0-1.397,1.133-2.53,2.53-2.53c1.397,0,2.53,1.133,2.53,2.53
					c0,1.397-1.133,2.53-2.53,2.53C106.639,159.988,105.507,158.855,105.507,157.458z"/>
			</g>
			<g>
				<g>
					<path style="fill:#A0A8FB;" d="M105.507,137.202c0-1.397,1.133-2.53,2.53-2.53c1.397,0,2.53,1.133,2.53,2.53
						c0,1.397-1.133,2.53-2.53,2.53C106.639,139.731,105.507,138.599,105.507,137.202z"/>
				</g>
			</g>
		</g>
		<g>
			<g>
				<path style="fill:#A0A8FB;" d="M85.25,197.971c0-1.397,1.133-2.53,2.53-2.53c1.397,0,2.53,1.133,2.53,2.53
					c0,1.397-1.133,2.53-2.53,2.53C86.383,200.5,85.25,199.368,85.25,197.971z"/>
			</g>
			<g>
				<path style="fill:#A0A8FB;" d="M85.25,177.714c0-1.397,1.133-2.53,2.53-2.53c1.397,0,2.53,1.133,2.53,2.53
					c0,1.397-1.133,2.53-2.53,2.53C86.383,180.244,85.25,179.111,85.25,177.714z"/>
			</g>
			<g>
				<path style="fill:#A0A8FB;" d="M85.25,157.458c0-1.397,1.133-2.53,2.53-2.53c1.397,0,2.53,1.133,2.53,2.53
					c0,1.397-1.133,2.53-2.53,2.53C86.383,159.988,85.25,158.855,85.25,157.458z"/>
			</g>
			<g>
				<g>
					<path style="fill:#A0A8FB;" d="M85.25,137.202c0-1.397,1.133-2.53,2.53-2.53c1.397,0,2.53,1.133,2.53,2.53
						c0,1.397-1.133,2.53-2.53,2.53C86.383,139.731,85.25,138.599,85.25,137.202z"/>
				</g>
			</g>
		</g>
		<g>
			<g>
				<path style="fill:#A0A8FB;" d="M64.994,197.971c0-1.397,1.133-2.53,2.53-2.53c1.397,0,2.53,1.133,2.53,2.53
					c0,1.397-1.133,2.53-2.53,2.53C66.127,200.5,64.994,199.368,64.994,197.971z"/>
			</g>
			<g>
				<path style="fill:#A0A8FB;" d="M64.994,177.714c0-1.397,1.133-2.53,2.53-2.53c1.397,0,2.53,1.133,2.53,2.53
					c0,1.397-1.133,2.53-2.53,2.53C66.127,180.244,64.994,179.111,64.994,177.714z"/>
			</g>
			<g>
				<path style="fill:#A0A8FB;" d="M64.994,157.458c0-1.397,1.133-2.53,2.53-2.53c1.397,0,2.53,1.133,2.53,2.53
					c0,1.397-1.133,2.53-2.53,2.53C66.127,159.988,64.994,158.855,64.994,157.458z"/>
			</g>
			<g>
				<g>
					<path style="fill:#A0A8FB;" d="M64.994,137.202c0-1.397,1.133-2.53,2.53-2.53c1.397,0,2.53,1.133,2.53,2.53
						c0,1.397-1.133,2.53-2.53,2.53C66.127,139.731,64.994,138.599,64.994,137.202z"/>
				</g>
			</g>
		</g>
		<g>
			<path style="fill:#A0A8FB;" d="M105.507,116.37c0-1.397,1.133-2.53,2.53-2.53c1.397,0,2.53,1.133,2.53,2.53
				c0,1.397-1.133,2.53-2.53,2.53C106.639,118.9,105.507,117.767,105.507,116.37z"/>
		</g>
		<g>
			<path style="fill:#A0A8FB;" d="M85.25,116.37c0-1.397,1.133-2.53,2.53-2.53c1.397,0,2.53,1.133,2.53,2.53
				c0,1.397-1.133,2.53-2.53,2.53C86.383,118.9,85.25,117.767,85.25,116.37z"/>
		</g>
		<g>
			<path style="fill:#A0A8FB;" d="M64.994,116.37c0-1.397,1.133-2.53,2.53-2.53c1.397,0,2.53,1.133,2.53,2.53
				c0,1.397-1.133,2.53-2.53,2.53C66.127,118.9,64.994,117.767,64.994,116.37z"/>
		</g>
	</g>
	<g>
		<path style="fill:#A0A8FB;" d="M31.229,439.07h451.599c0,0-3.147,39.75-232.759,39.75S31.229,439.07,31.229,439.07z"/>
	</g>
	<g>
		<g>
			<path style="fill:#A0A8FB;" d="M96.211,294.308l-0.163-0.225c-1.533,1.533-4.353,0.92-5.722-0.777
				c-1.39-1.676-1.594-4.026-1.431-6.192c0.654-8.256,6.233-15.491,13.059-20.191c6.826-4.7,14.857-7.275,22.766-9.768
				c-4.394,5.313-3.944,12.956-5.129,19.741c-1.247,7.112-4.537,13.855-9.38,19.21c-1.512,1.655-3.229,3.229-5.293,4.128
				c-2.084,0.899-4.578,1.022-6.519-0.123C96.436,298.968,95.312,296.372,96.211,294.308z"/>
		</g>
		<g>
			<path style="fill:#A0A8FB;" d="M136,318.77c-3.168-1.696-6.989-2.146-10.484-1.267c-2.779,0.695-5.293,2.207-7.766,3.719
				c-2.452,1.492-4.945,3.024-7.725,3.801c-2.759,0.777-5.926,0.674-8.317-0.899c-2.35-1.553-3.678-4.762-2.554-7.337
				c-2.023-0.388-3.188-2.82-2.759-4.843c0.429-2.044,1.982-3.658,3.617-4.904c5.906-4.496,14.039-5.886,21.09-3.576
				C128.132,305.752,133.895,311.658,136,318.77z"/>
		</g>
		<g>
			<path style="fill:#A0A8FB;" d="M83.03,267.19c-2.085,2.289-4.925,3.944-8.011,4.251c-3.086,0.306-6.335-0.818-8.317-3.188
				c-2.187-2.616-2.575-6.294-2.309-9.687c1.001-12.793,9.932-23.992,10.851-36.744c6.539,3.188,12.548,7.541,17.146,13.181
				c4.741,5.845,7.888,13.12,8.256,20.64c0.163,3.311-0.245,6.744-1.758,9.707c-1.512,2.943-4.292,5.375-7.561,5.947
				C88.057,271.849,84.358,270.235,83.03,267.19z"/>
		</g>
		<g>
			<path style="fill:#A0A8FB;" d="M63.452,321.304c0.429,2.044-0.715,4.476-2.739,4.843c1.104,2.575-0.204,5.804-2.554,7.337
				c-2.411,1.594-5.559,1.676-8.338,0.899c-2.779-0.756-5.273-2.289-7.725-3.801c-2.452-1.492-4.966-3.004-7.766-3.719
				c-3.495-0.879-7.296-0.409-10.484,1.267c2.105-7.091,7.868-12.997,14.918-15.307c7.05-2.289,15.184-0.919,21.069,3.576
				C61.491,317.667,63.044,319.281,63.452,321.304z"/>
		</g>
		<g>
			<path style="fill:#A0A8FB;" d="M71.79,285.01c0.817,2.064,1.471,4.251,1.39,6.458c-0.061,2.227-0.961,4.496-2.739,5.824
				c-1.778,1.308-4.516,1.41-6.131-0.102c0.674,4.087-1.757,8.481-5.579,10.075c-3.822,1.574-8.665,0.204-11.076-3.168
				c-2.023-2.841-2.289-6.54-2.473-10.034c-0.388-6.376-0.797-12.772-2.207-19.005c-1.246-5.64-3.351-11.158-6.764-15.838
				c7.541,0.429,14.959,3.025,21.151,7.398C63.82,271.175,68.909,277.653,71.79,285.01z"/>
		</g>
		<g>
			<path style="fill:#222A40;" d="M78.8,362.651c-0.002,0-0.003,0-0.004,0c-0.252-0.002-0.463-0.191-0.492-0.442
				c-1.862-16.037-3.787-32.62-8.246-48.425c-4.994-17.704-12.641-32.138-22.728-42.9c-0.189-0.201-0.179-0.518,0.023-0.707
				c0.201-0.188,0.519-0.179,0.707,0.023c10.198,10.88,17.923,25.453,22.961,43.313c4.115,14.588,6.079,29.802,7.818,44.642
				c1.92-13.957,4.252-28.591,8.42-42.763c4.981-16.939,12.115-31.203,21.201-42.396c0.174-0.213,0.489-0.249,0.703-0.072
				c0.214,0.174,0.247,0.488,0.073,0.703c-9.003,11.088-16.074,25.234-21.019,42.046c-4.54,15.441-6.897,31.461-8.921,46.545
				C79.262,362.466,79.05,362.651,78.8,362.651z"/>
		</g>
		<g>
			<path style="fill:#222A40;" d="M83.504,333.304c-0.092,0-0.185-0.025-0.268-0.078c-0.233-0.148-0.302-0.457-0.153-0.69
				c7.859-12.356,20.575-20.939,34.013-22.956c0.273-0.041,0.528,0.148,0.569,0.42c0.041,0.273-0.147,0.527-0.42,0.568
				c-13.156,1.976-25.611,10.389-33.317,22.505C83.831,333.222,83.67,333.304,83.504,333.304z"/>
		</g>
		<g>
			<path style="fill:#222A40;" d="M78.565,363.184c-0.01,0-0.02,0-0.03-0.001c-0.276-0.016-0.486-0.253-0.47-0.528l2.507-42.7
				c1.693-28.83,3.443-58.641-1.876-87.57c-0.05-0.272,0.13-0.532,0.401-0.583c0.273-0.04,0.532,0.131,0.582,0.401
				c5.341,29.049,3.586,58.922,1.89,87.81l-2.507,42.7C79.048,362.979,78.827,363.184,78.565,363.184z"/>
		</g>
		<g>
			<path style="fill:#222A40;" d="M76.349,342.675c-0.165,0-0.327-0.082-0.422-0.231c-7.706-12.116-20.162-20.529-33.317-22.505
				c-0.273-0.041-0.462-0.295-0.42-0.568c0.042-0.272,0.298-0.461,0.569-0.42c13.438,2.018,26.153,10.6,34.013,22.956
				c0.148,0.233,0.08,0.542-0.153,0.69C76.534,342.65,76.441,342.675,76.349,342.675z"/>
		</g>
		<g>
			<path style="fill:#A0A8FB;" d="M95.252,443.996c-0.043,0.027-0.082,0.053-0.125,0.073c-16.586,10.015-29.966,0.345-30.518-0.06
				c-0.014-0.007-0.019-0.013-0.019-0.013s-5.684-56.906-5.53-63.913c0.154-7,5.53-16.423,5.53-16.423l-2.856-10.147h36.375
				l-2.856,10.147c0,0,5.382,9.423,5.535,16.423C100.941,387.09,95.252,443.996,95.252,443.996z"/>
		</g>
	</g>
	<g>
		<g>
			<path style="fill:#7F85FA;" d="M451.095,171.261c0,0-0.508,0.554-1.386,1.393c-2.255,2.163-6.936,6.235-11.562,7.698
				c-3.218,1.016-7.19,1.255-10.346,1.247l2.463,11.277l-12.894,3.856l-4.796,18.398c0,0,1.178,25.464-2.509,26.957
				c-3.695,1.501-31.022-1.493-31.022-1.493s-20.714,7.49-25.102,7.705c-4.388,0.208-11.554-6.32-13.055-10.492
				c-1.501-4.172,2.14-23.001,2.571-31.237c0.308-5.958,6.089-31.445,9.276-45.139l-15.695-11.146l0.747-3.726l5.088-25.464
				l0.154-0.762c0,0,27.334,3.102,31.499,4.064c4.164,0.962,10.045,4.703,10.045,4.703l-0.562,11.023c0,0,3.125-3.741,6.22-2.779
				c0,0,3.995,2.14,4.688,5.45c0,0,17.774-5.05,21.792-13.763c5.242,2.355,19.183,8.76,21.438,11.092
				C440.926,143.011,451.095,171.261,451.095,171.261z"/>
		</g>
		<g>
			<path style="fill:#6455E7;" d="M419.403,425.176l1.84,13.894l-11.77,19.899h-23.324c-0.485-5.512,7.805-16.157,7.805-16.157
				l5.05-15.665C403.169,428.54,411.721,430.334,419.403,425.176z"/>
		</g>
		<g>
			<path style="fill:#E07049;" d="M381.646,90.22c0.831-3.649,1.532-6.458,1.532-6.458l0.015,0.008
				c0.47-2.633,1.509-5.026,2.971-7.082c0.693,2.255,1.824,3.164,3.957,5.203c0.616,0.585,1.57,1.147,2.248,0.624
				c0.423-0.316,0.5-0.916,0.531-1.439c0.108-1.724,0.092-3.449-0.031-5.165c2.325,3.995,6.05,7.159,10.376,8.798
				c-0.092-2.125-0.192-4.257-0.285-6.389c1.601,2.602,3.949,4.734,6.689,6.089c1.516,5.619,6.297,10.962,6.297,10.962
				c0.7-0.016,1.401,0.131,2.04,0.4c1.439,0.639,2.525,1.971,3.01,3.472c0.477,1.501,0.393,3.148-0.069,4.642
				c-0.7,2.186-2.232,4.087-4.226,5.234c-1.632,0.947-3.572,1.363-5.458,1.186c-0.547,1.539-1.239,2.894-2.048,4.08
				c0,0,0,0.008-0.008,0.015c-4.688,6.951-12.901,8.291-14.602,8.806c-0.708,0.216-2.225,0.223-3.972,0.069
				c-3.225-0.285-7.213-1.139-8.252-2.302c-1.617-1.786-3.325-10.692-3.318-15.726C379.052,102.298,380.476,95.409,381.646,90.22z"
				/>
		</g>
		<g>
			<path style="fill:#222A40;" d="M399.005,427.147c-1.609-0.547-2.563-1.024-2.563-1.024L379.576,298.45l1.54,127.673
				c-8.798,4.557-18.767,2.417-23.424,0.962c-1.686-0.523-2.679-0.962-2.679-0.962l-14.125-188.316
				c1.501,4.172,8.668,10.7,13.055,10.492c4.388-0.216,25.102-7.705,25.102-7.705s27.327,2.994,31.022,1.493
				c0,0,4.38,12.84,7.005,26.003c2.617,13.163,4.927,155.031,4.927,155.031c-0.847,0.777-1.717,1.462-2.594,2.055
				C411.721,430.334,403.169,428.54,399.005,427.147z"/>
		</g>
		<g>
			<path style="fill:#222A40;" d="M417.987,95.771c-0.639-0.269-1.339-0.416-2.04-0.4c0,0-4.78-5.342-6.297-10.962
				c-2.74-1.355-5.088-3.487-6.689-6.089c0.092,2.132,0.193,4.264,0.285,6.389c-4.326-1.64-8.052-4.803-10.376-8.798
				c0.123,1.717,0.138,3.441,0.031,5.165c-0.031,0.523-0.108,1.124-0.531,1.439c-0.677,0.523-1.632-0.038-2.248-0.624
				c-2.132-2.04-3.264-2.948-3.957-5.203c-1.463,2.055-2.502,4.449-2.971,7.082l-0.015-0.008c0,0-0.7,2.81-1.532,6.458
				c-0.962-4.726-2.471-13.894-0.262-16.319c3.01-3.31,7.559-8.868,15.58-9.522c8.021-0.654,18.574,9.122,18.574,9.122
				s4.365,1.555,5.781,3.01C422.729,77.966,417.987,95.771,417.987,95.771z"/>
		</g>
		<g>
			<path style="fill:#A0A8FB;" d="M416.709,129.032c-4.018,8.714-21.792,13.763-21.792,13.763c-0.693-3.31-4.688-5.45-4.688-5.45
				c11.192-2.409,22.346-12.732,22.346-12.732l-0.308-3.318c3.379,0.693,4.803,6.843,4.803,6.843
				C416.971,128.439,416.848,128.74,416.709,129.032z"/>
		</g>
		<g>
			<path style="fill:#E07049;" d="M412.268,121.296l0.308,3.318c0,0-11.154,10.323-22.346,12.732l0.208-7.705
				c13.756-2.202,18.574-14.756,18.751-15.242c0.008-0.008,0.008-0.015,0.008-0.015c0.808-1.185,1.501-2.54,2.048-4.08
				L412.268,121.296z"/>
		</g>
		<g>
			<path style="fill:#222A40;" d="M390.568,124.829l0.046-1.555c1.747,0.154,3.264,0.146,3.972-0.069
				c1.701-0.516,9.915-1.855,14.602-8.806c-0.177,0.485-4.996,13.04-18.751,15.242L390.568,124.829z"/>
		</g>
		<g>
			<path style="fill:#A0A8FB;" d="M390.568,124.829l-0.131,4.811l-0.208,7.705c-3.094-0.962-6.22,2.779-6.22,2.779l0.562-11.023
				C385.434,127.115,390.329,124.937,390.568,124.829z"/>
		</g>
		<g>
			<path style="fill:#6455E7;" d="M381.446,433.613c3.749,7.436,1.385,17.12,1.385,17.12h-54.676c0,0-4.334-4.126-4.495-6.212
				c-0.162-2.086,0.908-2.456,9.206-4.172c8.29-1.709,24.825-13.263,24.825-13.263c4.657,1.455,14.626,3.595,23.424-0.962
				L381.446,433.613z"/>
		</g>
		<g>
			<path style="fill:#E07049;" d="M342.873,121.096l-5.088,25.464c-5.211-2.717-21.515-11.316-24.34-13.871
				c-6.25-5.658-31.083-38.627-31.083-38.627s-4.064-3.318-6.474-7.028c-2.409-3.718-1.772-12.551-2.38-14.637
				c-0.616-2.086-2.569-8.61-3.447-10.165c-0.885-1.547,1.049-3.789,1.641-3.142c0.585,0.639,4.132,8.846,4.132,8.846
				s-0.962-9.106-1.031-11.192c-0.077-2.086,0.339-3.641,1.532-4.318c1.193-0.677,1.747,0.215,1.747,0.215
				c0.677-1.285,1.37-1.285,1.894-1.247c0.516,0.031,1.101,1.355,1.101,1.355c0.962-1.355,2.571-0.185,2.571-0.185
				c0.139,1.54,3.687,26.68,5.565,25.718c1.871-0.962,2.032-4.226,4.488-5.989c2.463-1.77,3.964,0.423,3.964,0.423
				c-2.248,3.641-5.996,14.618-5.996,14.618l28.389,26.08L342.873,121.096z"/>
		</g>
		<g>
			<polygon style="fill:#6455E7;" points="399.152,161.583 411.453,176.302 408.414,178.696 417.508,189.587 438.245,214.4 
				430.235,221.094 407.302,240.258 378.974,206.351 377.126,204.141 377.119,204.137 363.076,187.333 362.978,187.212 
				371.321,180.236 393.92,161.355 			"/>
		</g>
		<g>
			<polygon style="fill:#E8A03F;" points="389.383,163.421 405.065,174.468 402.746,177.565 414.342,185.74 440.779,204.364 
				434.767,212.898 417.555,237.329 381.438,211.879 379.083,210.221 379.075,210.218 361.172,197.607 361.046,197.516 
				367.307,188.623 384.269,164.55 			"/>
		</g>
		<g>
			<path style="fill:#E07049;" d="M449.709,172.655c0.054,0.516,2.348,21.846,2.24,27.819c-0.108,6.043-2.086,8.021-6.851,10.376
				c-3.087,1.524-20.622,2.871-32.561,3.633c-6.474,0.408-11.308,0.647-11.308,0.647s-11.554,5.35-13.91,5.842
				c-2.348,0.5-3.703-2.779-3.703-2.779s-2.425-0.854-2.71-2.925c0,0-1.932-1.001-1.855-3.141c0,0-4.495-0.962-4.495-2.779
				c0-1.817,0-1.817,0-1.817s0.747-0.177,2.925-1.039c2.171-0.854,5.635-4.349,5.635-4.349s-6.597-0.962-7.49-2.278
				c-0.893-1.324-1.501-3.033-0.785-4.565c0.716-1.54,3.456,1.563,8.698,1.209c5.242-0.354,9.314,0.639,11.416,2.071
				c2.102,1.424,6.489,2.925,6.489,2.925l28.82-8.629l-2.463-11.277c3.156,0.008,7.128-0.231,10.346-1.247
				C442.773,178.89,447.454,174.818,449.709,172.655z"/>
		</g>
		<g>
			<g>
				<path style="fill:#BD4A28;" d="M391.255,92.799c0,0,0.624,3.442-0.253,7.266c-0.878,3.824-3.629,5.723-4.839,5.226
					c-1.21-0.498-3.151-2.727-2.516-4.664c0,0,0.787-1.227,1.99-2.069C386.84,97.717,391.255,92.799,391.255,92.799z"/>
			</g>
			<g>
				<path style="fill:#222A40;" d="M387.519,106.786c-0.09,0-0.18-0.024-0.262-0.074c-1.653-1.015-3.022-2.465-3.954-4.192
					c-0.575-1.062-0.28-2.419,0.699-3.227c2.846-2.345,5.449-4.996,7.738-7.881c0.172-0.217,0.486-0.253,0.702-0.081
					c0.217,0.171,0.253,0.486,0.081,0.703c-2.333,2.939-4.985,5.641-7.885,8.03c-0.612,0.504-0.805,1.337-0.457,1.979
					c0.851,1.573,2.095,2.893,3.599,3.815c0.235,0.145,0.309,0.453,0.164,0.688C387.851,106.701,387.687,106.786,387.519,106.786z"
					/>
			</g>
			<g>
				<path style="fill:#222A40;" d="M396.72,95.032c-0.198,1.457,0.67,2.778,1.938,2.95c1.268,0.172,2.456-0.87,2.653-2.327
					c0.198-1.457-0.67-2.778-1.938-2.949C398.105,92.533,396.917,93.575,396.72,95.032z"/>
			</g>
			<g>
				<path style="fill:#222A40;" d="M382.277,93.074c-0.198,1.457,0.67,2.778,1.938,2.949c1.268,0.172,2.456-0.87,2.653-2.327
					c0.198-1.457-0.67-2.777-1.938-2.95C383.662,90.575,382.474,91.617,382.277,93.074z"/>
			</g>
			<g>
				<path style="fill:#222A40;" d="M399.102,87c1.964,0.436,3.772,1.195,5.462,2.285c0.305,0.197,0.526,0.652,0.573,0.998
					c0.051,0.375-0.06,0.852-0.31,1.145c-0.252,0.295-0.601,0.537-0.998,0.573c-0.43,0.038-0.783-0.077-1.145-0.31
					c-0.091-0.059-0.184-0.114-0.275-0.171c-1.038-0.598-2.143-1.063-3.295-1.391c-0.14-0.035-0.28-0.072-0.421-0.104
					c-0.403-0.09-0.752-0.251-1.009-0.588c-0.227-0.298-0.366-0.755-0.298-1.13C397.522,87.549,398.268,86.815,399.102,87z"/>
			</g>
			<g>
				<path style="fill:#222A40;" d="M381.438,88.257c0.082,0.379,0.436,0.678,0.81,0.818c0.404,0.151,0.775,0.134,1.186,0.006
					c0.103-0.032,0.207-0.061,0.311-0.091c1.16-0.3,2.348-0.454,3.546-0.463c0.145,0.003,0.289,0.005,0.434,0.012
					c0.412,0.021,0.792-0.041,1.13-0.298c0.298-0.227,0.554-0.63,0.588-1.009c0.069-0.767-0.453-1.674-1.307-1.717
					c-2.009-0.103-3.954,0.147-5.873,0.748C382.261,86.261,381.119,86.784,381.438,88.257z"/>
			</g>
			<g>
				<path style="fill:#FFFFFF;" d="M384.06,110.906c0.623,1.656,2.35,4.708,6.603,4.576c3.88-0.105,5.294-3.487,5.752-5.273
					c0.151-0.549-0.286-1.071-0.845-1.039l-10.777,0.649C384.233,109.851,383.866,110.402,384.06,110.906z"/>
			</g>
			<g>
				<path style="fill:#222A40;" d="M412.748,107.793c-0.037,0-0.074-0.004-0.112-0.013c-0.268-0.062-0.437-0.33-0.375-0.599
					c0.75-3.265,2.928-6.217,5.825-7.896c0.236-0.138,0.544-0.059,0.684,0.182c0.139,0.239,0.057,0.544-0.182,0.683
					c-2.662,1.543-4.663,4.255-5.352,7.255C413.182,107.636,412.976,107.793,412.748,107.793z"/>
			</g>
		</g>
		<g>
			<path style="fill:#222A40;" d="M281.076,69.526c-0.259,0-0.478-0.2-0.498-0.462c-0.006-0.079-0.591-7.874-0.907-11.334
				c-0.337-3.673,0.971-5.243,1.026-5.308c0.182-0.209,0.498-0.233,0.705-0.054c0.209,0.179,0.233,0.492,0.057,0.702
				c-0.025,0.032-1.084,1.384-0.792,4.569c0.316,3.468,0.903,11.271,0.909,11.349c0.021,0.275-0.187,0.516-0.462,0.536
				C281.101,69.526,281.089,69.526,281.076,69.526z"/>
		</g>
		<g>
			<path style="fill:#222A40;" d="M278.081,70.062c-0.261,0-0.48-0.203-0.498-0.467c-0.007-0.109-0.723-10.975-0.803-13.283
				c-0.085-2.459,0.846-3.888,0.886-3.948c0.152-0.231,0.463-0.292,0.693-0.14c0.229,0.153,0.292,0.462,0.14,0.692
				c-0.015,0.023-0.792,1.253-0.719,3.361c0.078,2.293,0.794,13.143,0.801,13.252c0.018,0.275-0.191,0.514-0.466,0.532
				C278.103,70.061,278.093,70.062,278.081,70.062z"/>
		</g>
		<g>
			<path style="fill:#222A40;" d="M276.312,71.067c-0.199,0-0.388-0.12-0.465-0.317c-0.102-0.257,0.024-0.547,0.282-0.648
				c2.14-0.842,4.479-1.241,6.785-1.164c0.276,0.01,0.492,0.241,0.482,0.517c-0.01,0.276-0.224,0.508-0.518,0.482
				c-2.153-0.074-4.37,0.302-6.385,1.095C276.435,71.056,276.374,71.067,276.312,71.067z"/>
		</g>
		<g>
			<path style="fill:#222A40;" d="M280.115,81.608c-0.028,0-0.057-0.002-0.085-0.007c-0.272-0.046-0.455-0.304-0.409-0.577
				c0.496-2.917,1.522-5.682,3.048-8.218c0.144-0.236,0.45-0.313,0.687-0.17c0.236,0.142,0.313,0.449,0.171,0.686
				c-1.462,2.429-2.444,5.077-2.919,7.871C280.565,81.435,280.354,81.608,280.115,81.608z"/>
		</g>
		<g>
			<path style="fill:#222A40;" d="M416.237,72.752c-0.271,0-0.492-0.215-0.5-0.486c-0.077-2.858-0.655-5.653-1.718-8.307
				c-0.103-0.256,0.022-0.547,0.278-0.65c0.252-0.102,0.547,0.021,0.649,0.278c1.107,2.764,1.71,5.675,1.79,8.651
				c0.007,0.276-0.211,0.506-0.486,0.514C416.246,72.752,416.241,72.752,416.237,72.752z"/>
		</g>
		<g>
			<path style="fill:#222A40;" d="M414.857,71.47c-0.171,0-0.338-0.088-0.432-0.247c-0.999-1.703-2.179-3.306-3.506-4.766
				c-0.185-0.205-0.171-0.521,0.034-0.707c0.205-0.185,0.52-0.17,0.706,0.034c1.373,1.511,2.594,3.17,3.629,4.933
				c0.14,0.238,0.059,0.544-0.179,0.684C415.031,71.448,414.944,71.47,414.857,71.47z"/>
		</g>
		<g>
			<path style="fill:#222A40;" d="M352.506,160.265c-0.24,0-0.452-0.174-0.492-0.42l-2.885-17.684
				c-0.045-0.273,0.14-0.53,0.413-0.574c0.26-0.044,0.528,0.14,0.573,0.413L353,159.685c0.045,0.273-0.14,0.53-0.413,0.574
				C352.56,160.263,352.533,160.265,352.506,160.265z"/>
		</g>
		<g>
			<path style="fill:#222A40;" d="M349.98,156.724c-0.198,0-0.386-0.119-0.464-0.314l-3.418-8.562
				c-0.102-0.256,0.023-0.547,0.278-0.65c0.256-0.105,0.547,0.022,0.649,0.279l3.418,8.562c0.103,0.256-0.022,0.547-0.278,0.65
				C350.105,156.713,350.042,156.724,349.98,156.724z"/>
		</g>
		<g>
			<path style="fill:#222A40;" d="M389.148,146.869c-0.013,0-0.025-0.001-0.038-0.002c-0.275-0.02-0.483-0.26-0.462-0.536
				l0.573-7.704c0.021-0.276,0.261-0.488,0.536-0.462c0.275,0.021,0.482,0.26,0.462,0.536l-0.573,7.704
				C389.627,146.669,389.407,146.869,389.148,146.869z"/>
		</g>
		<g>
			<path style="fill:#222A40;" d="M412.576,198.673c-0.212,0-0.408-0.135-0.476-0.347c-0.085-0.263,0.06-0.544,0.322-0.629
				c0.1-0.032,10.154-3.259,17.711-5.303c7.699-2.085,12.039-0.486,12.221-0.417c0.257,0.099,0.386,0.387,0.288,0.644
				c-0.098,0.258-0.387,0.385-0.644,0.291c-0.042-0.016-4.25-1.543-11.603,0.446c-7.534,2.039-17.566,5.258-17.666,5.29
				C412.678,198.665,412.627,198.673,412.576,198.673z"/>
		</g>
		<g>
			<path style="fill:#222A40;" d="M423.344,182.674c-0.114,0-0.177-0.001-0.184-0.001c-0.211-0.002-0.397-0.137-0.467-0.335
				l-6.527-18.752c-0.09-0.261,0.048-0.546,0.309-0.637c0.258-0.09,0.545,0.047,0.637,0.308l6.41,18.417
				c1.645-0.008,8.763-0.142,14.485-1.802c6.405-1.858,11.272-7.486,11.321-7.542c0.18-0.21,0.495-0.233,0.705-0.055
				c0.209,0.179,0.234,0.495,0.055,0.704c-0.205,0.24-5.103,5.91-11.802,7.853C432.204,182.597,424.614,182.674,423.344,182.674z"/>
		</g>
		<g>
			<path style="fill:#222A40;" d="M379.052,212.628c-0.253,0-0.47-0.191-0.496-0.448c-0.029-0.274,0.171-0.52,0.445-0.549
				l2.386-0.248c0.266-0.03,0.52,0.17,0.549,0.445c0.029,0.274-0.171,0.52-0.445,0.549l-2.386,0.249
				C379.087,212.627,379.069,212.628,379.052,212.628z"/>
		</g>
		<g>
			<path style="fill:#222A40;" d="M383.543,215.769h-2.636c-0.276,0-0.5-0.224-0.5-0.5c0-0.276,0.224-0.5,0.5-0.5h2.636
				c0.276,0,0.5,0.224,0.5,0.5C384.043,215.545,383.819,215.769,383.543,215.769z"/>
		</g>
		<g>
			<path style="fill:#222A40;" d="M385.968,218.694h-2.351c-0.276,0-0.5-0.224-0.5-0.5s0.224-0.5,0.5-0.5h2.351
				c0.276,0,0.5,0.224,0.5,0.5S386.245,218.694,385.968,218.694z"/>
		</g>
		<g>
			<path style="fill:#222A40;" d="M362.977,246.527c-0.221,0-0.423-0.146-0.482-0.37c-0.072-0.267,0.086-0.541,0.353-0.612
				c19.951-5.388,24.017-11.266,24.057-11.324c0.152-0.229,0.46-0.296,0.691-0.145c0.23,0.15,0.297,0.457,0.148,0.688
				c-0.162,0.252-4.2,6.229-24.637,11.746C363.064,246.522,363.02,246.527,362.977,246.527z"/>
		</g>
		<g>
			<path style="fill:#222A40;" d="M325.18,447.936c-0.276,0-0.5-0.224-0.5-0.499c0-0.276,0.224-0.501,0.499-0.501l56.263-0.059
				c0.001,0,0.001,0,0.001,0c0.276,0,0.5,0.224,0.5,0.499c0,0.276-0.224,0.501-0.499,0.501L325.18,447.936
				C325.18,447.936,325.18,447.936,325.18,447.936z"/>
		</g>
		<g>
			<path style="fill:#222A40;" d="M408.651,456.267H386.59c-0.276,0-0.5-0.224-0.5-0.5c0-0.276,0.224-0.5,0.5-0.5h21.813
				l12.441-16.497c0.167-0.222,0.482-0.263,0.7-0.099c0.221,0.166,0.265,0.48,0.099,0.7l-12.592,16.696
				C408.956,456.194,408.808,456.267,408.651,456.267z"/>
		</g>
		<g>
			<path style="fill:#222A40;" d="M355.34,435.051c-0.245,0-0.46-0.182-0.494-0.432c-0.318-2.308-1.887-4.439-3.996-5.432
				c-0.25-0.117-0.357-0.415-0.239-0.665c0.117-0.249,0.413-0.356,0.665-0.239c2.407,1.132,4.197,3.565,4.561,6.199
				c0.038,0.273-0.153,0.526-0.427,0.563C355.385,435.049,355.363,435.051,355.34,435.051z"/>
		</g>
		<g>
			<path style="fill:#222A40;" d="M351.034,437.177c-0.265,0-0.485-0.207-0.499-0.475c-0.099-1.9-1.009-3.788-2.438-5.048
				c-0.207-0.183-0.227-0.499-0.044-0.706s0.498-0.227,0.706-0.044c1.649,1.456,2.661,3.551,2.773,5.747
				c0.015,0.275-0.197,0.511-0.474,0.524C351.051,437.177,351.042,437.177,351.034,437.177z"/>
		</g>
		<g>
			<path style="fill:#222A40;" d="M407.236,435.015c-0.079,0-0.158-0.019-0.232-0.058c-2.162-1.139-4.6-1.708-7.039-1.623
				c-0.006,0-0.011,0-0.016,0c-0.27,0-0.491-0.214-0.5-0.484c-0.009-0.276,0.208-0.507,0.484-0.516
				c2.616-0.081,5.221,0.52,7.535,1.738c0.245,0.129,0.339,0.431,0.21,0.675C407.589,434.918,407.416,435.015,407.236,435.015z"/>
		</g>
		<g>
			<path style="fill:#222A40;" d="M405.223,438.897c-0.094,0-0.188-0.026-0.272-0.08c-1.727-1.118-3.81-1.755-5.867-1.793
				c-0.276-0.005-0.496-0.233-0.491-0.509c0.005-0.276,0.242-0.449,0.509-0.491c2.275,0.042,4.485,0.718,6.393,1.953
				c0.232,0.15,0.298,0.46,0.148,0.691C405.547,438.817,405.385,438.897,405.223,438.897z"/>
		</g>
		<g>
			<path style="fill:#10141C;" d="M379.575,298.949c-0.246,0-0.461-0.182-0.494-0.433l-3.736-27.542
				c-0.037-0.273,0.154-0.525,0.428-0.563c0.281-0.047,0.526,0.153,0.563,0.428l3.736,27.542c0.037,0.273-0.154,0.525-0.428,0.563
				C379.62,298.948,379.598,298.949,379.575,298.949z"/>
		</g>
		<g>
			<path style="fill:#10141C;" d="M373.301,270.055c-0.066,0-0.134-0.013-0.198-0.041l-17.84-7.685
				c-0.253-0.109-0.37-0.403-0.261-0.657c0.108-0.254,0.403-0.372,0.657-0.261l17.84,7.685c0.253,0.109,0.37,0.403,0.261,0.657
				C373.678,269.942,373.494,270.055,373.301,270.055z"/>
		</g>
		<g>
			<path style="fill:#10141C;" d="M371.419,271.543c-0.022,0-0.045-0.001-0.068-0.005c-4.839-0.656-9.767-1.081-14.646-1.262
				c-0.276-0.011-0.491-0.242-0.481-0.518c0.011-0.275,0.246-0.482,0.518-0.482c4.912,0.183,9.873,0.61,14.744,1.272
				c0.273,0.037,0.465,0.289,0.428,0.563C371.88,271.362,371.665,271.543,371.419,271.543z"/>
		</g>
		<g>
			<path style="fill:#10141C;" d="M418.137,422.555c-0.27,0-0.491-0.214-0.5-0.485c0,0-3.744-124.22-4.279-141.874
				c-0.524-17.3-11.504-33.724-11.614-33.888c-0.154-0.229-0.095-0.54,0.134-0.694c0.229-0.155,0.539-0.095,0.694,0.134
				c0.112,0.166,11.253,16.822,11.786,34.417c0.535,17.655,4.279,141.876,4.279,141.876c0.008,0.275-0.209,0.506-0.485,0.515
				C418.147,422.555,418.142,422.555,418.137,422.555z"/>
		</g>
	</g>
	<g>
		<g>
			<path style="fill:#222A40;" d="M149.046,115.661c0.062,0.223,0.608,2.278,0.439,2.348c-3.402,0.231-6.682,0.446-9.607,0.631
				c-5.381-2.956-9.476-13.432-9.599-13.756l0.008-0.008c4.38,8.514,13.802,10.022,15.634,10.584
				c0.585,0.177,1.74,0.215,3.118,0.131L149.046,115.661z"/>
		</g>
		<g>
			<path style="fill:#E48C59;" d="M238.054,53.664c0,0,1.778,0.108,1.778,1.855c0,1.748-1.64,15.103-1.64,15.103
				s-0.924,13.248-5.488,19.059l-32.145,40.975c-1.947-5.681-5.65-16.242-7.752-20.345l29.197-25.233c0,0-1.855-14.441-0.854-16.935
				c0.993-2.502,3.21-5.181,3.21-5.181l6.343-18.428c0,0,2.286-0.47,2.502,1.139c0,0,2.14,0.423,2.209,1.994
				c0,0,2.463,0.077,2.64,1.786V53.664z"/>
		</g>
		<g>
			<path style="fill:#E48C59;" d="M130.279,104.884c0.123,0.323,4.218,10.8,9.599,13.756c-1.139,0.069-2.225,0.131-3.241,0.192
				c-7.79-2.278-9.43-7.821-9.43-7.821l0.562-3.041l1.001-5.373c0.169-0.008,0.339-0.015,0.508-0.031
				c0.292,0.824,0.623,1.593,1.008,2.309L130.279,104.884z"/>
		</g>
		<g>
			<path style="fill:#222A40;" d="M192.176,434.891c8.298,1.717,9.368,2.086,9.206,4.172c-0.162,2.086-4.495,6.212-4.495,6.212
				H142.21c0,0-2.363-9.684,1.386-17.12l0.539-8.537l22.354-0.878l0.862,2.887C167.351,421.628,183.886,433.182,192.176,434.891z"/>
		</g>
		<g>
			<path style="fill:#A0A8FB;" d="M200.559,130.656c0.77,2.263,1.262,3.749,1.262,3.749s-3.91,3.102-4.926,2.994
				c-0.131-0.015-0.493-0.416-1.016-1.116c-2.825-3.741-10.484-15.926-13.425-20.645c0,0,0,0-0.008,0
				c-0.731-1.178-1.17-1.886-1.17-1.886c1.978-1.617,5.027-1.816,5.027-1.816s3.587-3.102,5.242-3.318
				c0.262-0.031,0.708,0.6,1.262,1.694C194.909,114.414,198.611,124.975,200.559,130.656z"/>
		</g>
		<g>
			<path style="fill:#FFFFFF;" d="M101.805,244.597l-2.348,0.87l10.985-51.998c0,0-5.989-44.192-5.773-57.455
				c0.208-13.271,14.541-19.044,14.541-19.044s1.663-2.786,1.717-4.388c0.054-1.609,6.843-4.611,6.843-4.611l-0.562,3.041
				c0,0,1.64,5.542,9.43,7.821c1.016-0.062,2.102-0.123,3.241-0.192c2.925-0.185,6.204-0.4,9.607-0.631
				c15.026-1.024,32.53-2.34,32.961-2.371c0.008,0,0.008,0,0.008,0c2.94,4.719,10.6,16.904,13.425,20.645L177.35,146.46
				c0,0-0.354,13.34,1.139,19.829c1.501,6.497-2.848,43.8-2.848,43.8l2.14,30.175c0,0-0.693,0.901-2.009,2.255
				c-3.91,4.01-13.332,11.978-26.665,12.078c-17.835,0.146-31.245-15.973-31.245-15.973L101.805,244.597z"/>
		</g>
		<g>
			<path style="fill:#6455E7;" d="M119.98,425.146l-19.898-0.285l-3.333-0.046c0,0-1.07-106.374,0-127.989
				c0.777-15.672,3.579-40.028,5.057-52.229l16.057-5.973c0,0,13.409,16.119,31.245,15.973c13.332-0.1,22.754-8.067,26.665-12.078
				c1.763,37.726-8.406,176.192-8.406,176.192l-0.878,0.031l-22.354,0.878l-0.993,0.039l-3.264-112.563l-17.689,118.082
				L119.98,425.146z"/>
		</g>
		<g>
			<path style="fill:#E48C59;" d="M129.014,102.975c-1.674,0.067-3.364-0.336-4.807-1.181c-1.929-1.114-3.424-2.953-4.097-5.076
				c-0.449-1.45-0.538-3.05-0.075-4.507c0.478-1.45,1.525-2.744,2.923-3.371c0.621-0.262,1.308-0.396,1.981-0.381
				c0,0,5.547-5.883,4.276-13.837c0,0,20.183,3.192,21.439-6.481c0,0,4.821,3.648,5.973,8.544c0.037,0.164,0.075,0.336,0.105,0.508
				h0.015c0,0,3.999,15.975,4.007,20.848c0,4.881-1.652,13.523-3.222,15.265c-1.106,1.226-5.606,2.101-8.836,2.287
				c-1.338,0.082-2.459,0.045-3.027-0.127c-1.779-0.546-10.929-2.011-15.182-10.278c-0.374-0.695-0.695-1.443-0.979-2.243
				C129.343,102.96,129.178,102.967,129.014,102.975z"/>
		</g>
		<g>
			<path style="fill:#222A40;" d="M119.356,70.503c0.12-0.18,0.247-0.359,0.374-0.538c4.814-6.638,11.4-8.97,15.018-10.032
				c0.067-0.023,0.142-0.037,0.217-0.052c3.932-0.905,17.694,1.839,19.608,5.524c1.951,3.745,2.16,11.788,2.16,11.788
				c-0.03-0.172-0.067-0.344-0.105-0.508c-1.151-4.896-5.973-8.544-5.973-8.544c-1.256,9.673-21.439,6.481-21.439,6.481
				c1.271,7.954-4.276,13.837-4.276,13.837c-0.673-0.015-1.36,0.12-1.981,0.381c-1.398,0.628-2.444,1.921-2.923,3.371
				C115.491,84.93,114.945,77.036,119.356,70.503z"/>
		</g>
		<g>
			<path style="fill:#222A40;" d="M134.732,56.935c0.194,0.972,0.247,1.958,0.232,2.945c-0.075,0.015-0.149,0.03-0.217,0.052
				c-3.618,1.061-10.204,3.394-15.018,10.032c-0.127,0.179-0.254,0.359-0.374,0.538c-2.003-0.187-3.932-1.331-4.941-3.073
				c-1.368-2.384-0.905-5.674,1.069-7.587c1.106-1.076,2.624-1.749,3.453-3.05c0.441-0.695,0.65-1.51,1.084-2.213
				c0.912-1.45,2.631-2.153,4.276-2.639c2.444-0.725,5.24-1.121,7.415,0.202C133.372,53.16,134.351,55.029,134.732,56.935z"/>
		</g>
		<g>
			<path style="fill:#222A40;" d="M125.522,442.812c0,0,8.29,10.646,7.805,16.157h-23.324l-11.77-19.899l1.84-13.894l0.008-0.316
				l19.898,0.285L125.522,442.812z"/>
		</g>
		<g>
			<g>
				<path style="fill:#E07045;" d="M148.064,86.217c0,0-0.592,3.267,0.24,6.896c0.833,3.629,3.444,5.432,4.592,4.96
					c1.148-0.472,2.991-2.588,2.388-4.426c0,0-0.747-1.164-1.889-1.963C152.254,90.884,148.064,86.217,148.064,86.217z"/>
			</g>
			<g>
				<path style="fill:#222A40;" d="M151.61,99.516c-0.168,0-0.332-0.084-0.427-0.238c-0.144-0.235-0.071-0.544,0.165-0.688
					c1.423-0.873,2.601-2.123,3.405-3.612c0.324-0.599,0.144-1.376-0.427-1.847c-2.752-2.268-5.271-4.834-7.487-7.624
					c-0.172-0.216-0.136-0.531,0.08-0.703c0.216-0.171,0.531-0.135,0.703,0.081c2.172,2.736,4.641,5.251,7.339,7.475
					c0.939,0.774,1.222,2.075,0.671,3.094c-0.888,1.644-2.189,3.022-3.762,3.989C151.79,99.492,151.699,99.516,151.61,99.516z"/>
			</g>
			<g>
				<path style="fill:#222A40;" d="M142.878,88.336c0.187,1.383-0.636,2.636-1.839,2.799c-1.203,0.163-2.33-0.826-2.518-2.208
					c-0.188-1.383,0.636-2.636,1.839-2.799S142.69,86.953,142.878,88.336z"/>
			</g>
			<g>
				<path style="fill:#222A40;" d="M156.584,86.478c0.188,1.383-0.636,2.636-1.839,2.799c-1.203,0.163-2.33-0.826-2.518-2.208
					c-0.188-1.383,0.636-2.636,1.839-2.799C155.269,84.106,156.397,85.095,156.584,86.478z"/>
			</g>
			<g>
				<path style="fill:#222A40;" d="M140.616,80.714c-1.864,0.414-3.58,1.133-5.184,2.168c-0.289,0.187-0.499,0.619-0.543,0.947
					c-0.048,0.356,0.057,0.808,0.295,1.086c0.239,0.28,0.57,0.51,0.947,0.543c0.408,0.036,0.743-0.073,1.086-0.295
					c0.086-0.055,0.174-0.108,0.262-0.162c0.985-0.567,2.034-1.008,3.127-1.32c0.133-0.033,0.266-0.068,0.4-0.098
					c0.382-0.085,0.714-0.238,0.958-0.558c0.215-0.283,0.347-0.717,0.283-1.072C142.116,81.235,141.408,80.538,140.616,80.714z"/>
			</g>
			<g>
				<path style="fill:#222A40;" d="M157.38,81.906c-0.078,0.36-0.414,0.643-0.768,0.776c-0.384,0.144-0.736,0.127-1.126,0.005
					c-0.098-0.031-0.197-0.058-0.295-0.086c-1.101-0.284-2.229-0.43-3.365-0.44c-0.137,0.003-0.274,0.005-0.412,0.012
					c-0.391,0.02-0.752-0.039-1.072-0.283c-0.283-0.215-0.526-0.598-0.558-0.958c-0.066-0.728,0.43-1.589,1.241-1.63
					c1.907-0.097,3.753,0.139,5.574,0.71C156.599,80.012,157.683,80.508,157.38,81.906z"/>
			</g>
			<g>
				<path style="fill:#222A40;" d="M127.666,100.472c-0.228,0-0.434-0.157-0.487-0.388c-0.652-2.84-2.546-5.408-5.067-6.869
					c-0.239-0.139-0.321-0.444-0.182-0.683c0.138-0.239,0.445-0.321,0.683-0.182c2.757,1.598,4.828,4.405,5.541,7.51
					c0.062,0.269-0.106,0.537-0.376,0.599C127.741,100.468,127.703,100.472,127.666,100.472z"/>
			</g>
			<g>
				<path style="fill:#222A40;" d="M151.113,104.608c-2.729,0-5.458-1.367-7.01-3.625c-0.156-0.228-0.099-0.539,0.129-0.695
					c0.228-0.156,0.54-0.099,0.695,0.129c1.633,2.377,4.75,3.63,7.571,3.053c0.272-0.053,0.535,0.119,0.59,0.389
					c0.056,0.271-0.119,0.535-0.389,0.59C152.177,104.557,151.644,104.608,151.113,104.608z"/>
			</g>
		</g>
		<g>
			<path style="fill:#222A40;" d="M134.854,61.163c-0.257,0-0.475-0.197-0.498-0.457c-0.102-1.19,0.034-2.374,0.166-3.519
				c0.053-0.458,0.106-0.917,0.143-1.376c0.158-1.932-0.068-3.325-0.711-4.382c-0.571-0.941-1.538-1.685-2.722-2.095
				c-1.041-0.36-2.248-0.47-3.585-0.325c-1.378,0.149-3.347,0.624-4.895,2.041c-1.366,1.25-2.075,3.041-1.852,4.673
				c0.037,0.274-0.154,0.526-0.428,0.563c-0.277,0.035-0.526-0.155-0.563-0.428c-0.267-1.952,0.564-4.078,2.168-5.546
				c1.748-1.6,3.935-2.133,5.462-2.298c1.485-0.161,2.838-0.035,4.02,0.374c1.403,0.486,2.557,1.381,3.249,2.521
				c0.996,1.638,0.964,3.629,0.854,4.983c-0.039,0.47-0.093,0.939-0.146,1.409c-0.132,1.146-0.257,2.229-0.164,3.318
				c0.024,0.275-0.18,0.517-0.455,0.541C134.883,61.163,134.868,61.163,134.854,61.163z"/>
		</g>
		<g>
			<path style="fill:#222A40;" d="M118.164,71.962c-1.303,0-2.605-0.351-3.702-1.055c-2.253-1.447-3.51-4.301-3.056-6.94
				c0.454-2.639,2.592-4.908,5.199-5.519c0.27-0.062,0.538,0.104,0.601,0.373c0.063,0.269-0.104,0.538-0.373,0.601
				c-2.227,0.521-4.053,2.46-4.441,4.715c-0.388,2.254,0.685,4.692,2.61,5.928c1.925,1.237,4.589,1.198,6.477-0.093
				c0.229-0.156,0.54-0.097,0.695,0.13c0.156,0.228,0.098,0.539-0.13,0.695C120.91,71.572,119.536,71.962,118.164,71.962z"/>
		</g>
		<g>
			<path style="fill:#222A40;" d="M154.97,69.651c-0.24,0-0.452-0.173-0.493-0.418c-0.589-3.54-1.31-6.892-3.621-8.997
				c-1.775-1.618-4.505-2.395-7.503-2.134c-2.755,0.24-5.407,1.246-7.973,2.219c-0.256,0.099-0.547-0.032-0.645-0.29
				c-0.098-0.258,0.032-0.547,0.29-0.645c2.629-0.997,5.348-2.028,8.24-2.28c3.268-0.283,6.282,0.586,8.264,2.391
				c2.548,2.321,3.314,5.853,3.934,9.573c0.045,0.272-0.139,0.53-0.411,0.575C155.025,69.65,154.998,69.651,154.97,69.651z"/>
		</g>
		<g>
			<path style="fill:#222A40;" d="M223.163,69.106c-0.045,0-0.091-0.006-0.137-0.019c-0.266-0.075-0.42-0.352-0.345-0.617
				l3.489-12.3c0.075-0.267,0.352-0.421,0.617-0.345c0.266,0.075,0.42,0.351,0.345,0.617l-3.489,12.3
				C223.581,68.962,223.381,69.106,223.163,69.106z"/>
		</g>
		<g>
			<path style="fill:#222A40;" d="M228.674,64.933c-0.039,0-0.079-0.004-0.118-0.014c-0.269-0.064-0.434-0.335-0.369-0.603
				l4.531-18.759c0.065-0.269,0.34-0.433,0.603-0.369c0.268,0.065,0.434,0.335,0.369,0.603l-4.531,18.759
				C229.104,64.779,228.899,64.933,228.674,64.933z"/>
		</g>
		<g>
			<path style="fill:#222A40;" d="M232.204,65.735c-0.03,0-0.06-0.002-0.09-0.008c-0.271-0.049-0.452-0.31-0.402-0.582l3.21-17.568
				c0.05-0.271,0.31-0.454,0.581-0.402c0.271,0.049,0.452,0.31,0.402,0.582l-3.21,17.568
				C232.652,65.567,232.441,65.735,232.204,65.735z"/>
		</g>
		<g>
			<path style="fill:#222A40;" d="M235.414,66.698c-0.034,0-0.069-0.003-0.104-0.011c-0.27-0.057-0.443-0.322-0.386-0.592
				l2.641-12.534c0.058-0.27,0.322-0.442,0.593-0.386c0.27,0.057,0.442,0.322,0.386,0.592l-2.641,12.534
				C235.853,66.537,235.646,66.698,235.414,66.698z"/>
		</g>
		<g>
			<path style="fill:#222A40;" d="M110.015,135.121c-0.088,0-0.177-0.023-0.258-0.072c-0.236-0.143-0.313-0.45-0.17-0.687
				c0.319-0.528,7.87-12.954,13.554-14.63c5.562-1.64,25.484-2.201,26.329-2.224c0.287-0.003,0.506,0.21,0.514,0.486
				c0.007,0.276-0.21,0.506-0.486,0.514c-0.205,0.005-20.636,0.58-26.073,2.183c-5.314,1.567-12.905,14.062-12.981,14.188
				C110.35,135.035,110.185,135.121,110.015,135.121z"/>
		</g>
		<g>
			<path style="fill:#222A40;" d="M133.543,161.798c-0.208,0-0.403-0.131-0.474-0.339c-0.088-0.262,0.052-0.545,0.313-0.634
				l43.807-14.839c0.263-0.088,0.546,0.052,0.634,0.313c0.088,0.262-0.052,0.545-0.313,0.634l-43.807,14.839
				C133.651,161.79,133.596,161.798,133.543,161.798z"/>
		</g>
		<g>
			<path style="fill:#222A40;" d="M136.398,166.777c-0.154,0-0.305-0.07-0.403-0.204c-0.164-0.222-0.117-0.535,0.106-0.699
				c3.448-2.54,6.747-5.351,9.803-8.354c0.197-0.195,0.513-0.192,0.707,0.006c0.194,0.197,0.191,0.514-0.006,0.707
				c-3.09,3.036-6.425,5.878-9.911,8.446C136.605,166.746,136.501,166.777,136.398,166.777z"/>
		</g>
		<g>
			<path style="fill:#222A40;" d="M124.576,200.728c-0.077,0-0.155-0.018-0.228-0.055l-13.284-6.815
				c-0.246-0.126-0.343-0.427-0.217-0.673c0.125-0.246,0.429-0.343,0.673-0.217l13.284,6.815c0.246,0.126,0.343,0.427,0.217,0.673
				C124.932,200.629,124.757,200.728,124.576,200.728z"/>
		</g>
		<g>
			<path style="fill:#222A40;" d="M175.641,210.589c-0.253,0-0.471-0.192-0.497-0.449l-6.136-60.331
				c-0.028-0.275,0.172-0.521,0.447-0.548c0.292-0.022,0.521,0.173,0.548,0.447l6.136,60.331c0.028,0.275-0.172,0.521-0.447,0.548
				C175.675,210.587,175.658,210.589,175.641,210.589z"/>
		</g>
		<g>
			<path style="fill:#222A40;" d="M139.879,307.594c-0.028,0-0.057-0.002-0.086-0.008c-0.272-0.047-0.454-0.306-0.407-0.578
				l6.801-39.086c0.033-0.189,0.171-0.342,0.355-0.395l25.894-7.419c0.264-0.078,0.543,0.077,0.618,0.343
				c0.076,0.266-0.077,0.542-0.343,0.618l-25.592,7.333l-6.748,38.777C140.328,307.423,140.117,307.594,139.879,307.594z"/>
		</g>
		<g>
			<path style="fill:#222A40;" d="M100.082,425.361c-0.004,0-0.009,0-0.013,0c-0.276-0.007-0.494-0.237-0.487-0.513
				c0.015-0.574,1.494-57.659,2.446-77.973c0.952-20.309,5-103.607,5.041-104.446c0.014-0.275,0.253-0.503,0.524-0.475
				c0.276,0.013,0.488,0.247,0.475,0.524c-0.041,0.839-4.089,84.137-5.041,104.444c-0.952,20.303-2.43,77.377-2.445,77.951
				C100.574,425.145,100.352,425.361,100.082,425.361z"/>
		</g>
	</g>
	<g>
		<g>
			<path style="fill:#A0A8FB;" d="M258.964,356.908h71.928c-3.954-11.575-2.177-26.455-2.177-26.455h12.129
				c10.069,0,17.695-8.653,16.084-18.216c-0.814-4.79-1.362-10.697-1.362-17.881c0-15.407,3.971-27.971,7.411-35.97
				c2.509-5.827,8.474-9.595,15.037-9.595h-71.928c-6.563,0-12.528,3.768-15.037,9.595c-3.439,7.999-7.411,20.563-7.411,35.97
				c0,7.184,0.548,13.091,1.363,17.881c1.612,9.563-6.015,18.216-16.084,18.216h-12.129
				C256.787,330.453,255.009,345.333,258.964,356.908z"/>
		</g>
		<g>
			<path style="fill:#222A40;" d="M330.891,356.908h34.261c0,0,5.849-18.472-0.931-29.711l0.017-0.048
				c0.665-1.82,22.381-60.62,21.916-68.97c-0.449-8.493-6.081-9.388-6.081-9.388h-2.06c-6.563,0-12.528,3.768-15.037,9.595
				c-3.439,7.999-7.411,20.563-7.411,35.97c0,7.184,0.548,13.091,1.362,17.881c1.612,9.563-6.015,18.216-16.084,18.216h-12.129
				C328.715,330.453,326.937,345.333,330.891,356.908z"/>
		</g>
		<g>
			<path style="fill:#222A40;" d="M328.715,330.953H259.76c-0.276,0-0.5-0.224-0.5-0.5c0-0.276,0.224-0.5,0.5-0.5h68.955
				c0.276,0,0.5,0.224,0.5,0.5C329.215,330.73,328.991,330.953,328.715,330.953z"/>
		</g>
		<g>
			<polygon style="fill:#222A40;" points="361.451,356.9 376,456.573 370.92,456.573 350.596,356.9 			"/>
		</g>
		<g>
			<polygon style="fill:#222A40;" points="261.607,356.9 247.057,456.573 252.138,456.573 272.461,356.9 			"/>
		</g>
		<g>
			<polygon style="fill:#222A40;" points="332.114,356.9 317.564,456.573 322.645,456.573 342.969,356.9 			"/>
		</g>
		<g>
			<polygon style="fill:#222A40;" points="288.934,356.9 303.484,456.573 298.403,456.573 278.08,356.9 			"/>
		</g>
	</g>
	<g>
		<g>
			<path style="fill:#E48C59;" d="M269.534,115.941c-0.677,0.792-1.878,0.748-2.915,0.835c-2.137,0.18-4.188,1.194-5.627,2.778
				c-0.756,0.835-1.346,1.813-2.202,2.54c-1.842,1.569-4.548,1.684-6.556,3.037c-1.756,1.18-2.749,3.138-3.584,5.109h-11.262
				c0.684-4.454-0.892-9.067-0.864-13.622c0.014-3.497,0.979-6.923,1.303-10.406c0.396-4.282-0.166-8.643,0.684-12.852
				c0.137-0.676,0.324-1.374,0.763-1.914c0.432-0.54,1.18-0.885,1.842-0.655c0.41,4.08,0.82,8.146,1.23,12.226
				c0.432-3.267,0.921-6.541,1.461-9.787c0.367-2.224,0.792-4.512,2.008-6.412c0.331-0.525,0.979-1.072,1.504-0.741
				c0.324,0.201,0.403,0.626,0.453,1c0.259,1.936,0.01,6.525,0.269,8.468c0.568-2.439,1.847-7.496,3.466-9.382
				c0.259-0.302,0.547-0.597,0.921-0.727c0.381-0.122,0.856-0.036,1.065,0.302c0.122,0.187,0.137,0.424,0.151,0.648
				c0.079,1.159,0.151,2.31,0.223,3.476c0.554-1.202,1.518-2.216,2.699-2.821c0.482-0.245,1.166-0.389,1.497,0.043
				c0.202,0.266,0.173,0.64,0.13,0.971c-0.95,7.369-3.022,14.738-2.094,22.106c0.086,0.684,0.216,1.403,0.655,1.936
				c0.36,0.439,1.007,0.691,1.533,0.525l0.007,0.029c1.418-0.432,2.871-0.763,4.339-0.993c2.144-0.338,4.562-0.382,6.225,1.022
				c0.468,0.396,0.856,0.914,1.022,1.511C270.038,114.789,269.937,115.466,269.534,115.941z"/>
		</g>
		<g>
			<path style="fill:#222A40;" d="M244.166,116.252c-0.071,0-0.143-0.015-0.211-0.047c-0.251-0.117-0.359-0.414-0.242-0.664
				c1.445-3.1,3.724-5.729,6.587-7.603c0.227-0.15,0.539-0.088,0.691,0.145c0.151,0.231,0.087,0.541-0.145,0.692
				c-2.668,1.747-4.88,4.3-6.228,7.189C244.534,116.145,244.353,116.252,244.166,116.252z"/>
		</g>
		<g>
			<path style="fill:#222A40;" d="M254.218,105.017c-0.024,0-0.048-0.001-0.072-0.005c-4.314-0.622-8.705-0.761-13.047-0.414
				c-0.272,0.019-0.517-0.183-0.538-0.458c-0.022-0.275,0.183-0.517,0.458-0.539c4.42-0.352,8.883-0.211,13.27,0.42
				c0.273,0.04,0.463,0.293,0.424,0.566C254.676,104.837,254.462,105.017,254.218,105.017z"/>
		</g>
		<g>
			<path style="fill:#222A40;" d="M246.977,104.412c-0.273,0-0.497-0.22-0.5-0.494c-0.035-3.118,1.03-8.258,1.076-8.475
				c0.056-0.271,0.319-0.443,0.592-0.387c0.27,0.056,0.443,0.321,0.387,0.591c-0.011,0.052-1.089,5.251-1.055,8.259
				c0.003,0.276-0.218,0.503-0.494,0.506C246.981,104.412,246.979,104.412,246.977,104.412z"/>
		</g>
		<g>
			<path style="fill:#222A40;" d="M250.26,104.412c-0.026,0-0.053-0.002-0.079-0.006c-0.273-0.043-0.459-0.299-0.416-0.572
				c0.993-6.278,3.604-14.054,3.63-14.132c0.089-0.261,0.368-0.401,0.634-0.314c0.262,0.088,0.402,0.372,0.314,0.633
				c-0.025,0.077-2.609,7.775-3.589,13.969C250.714,104.237,250.501,104.412,250.26,104.412z"/>
		</g>
		<g>
			<path style="fill:#E8A03F;" d="M353.836,272.238c-0.316,0.962-2.71,3.495-5.689,6.381c-5.473,5.288-12.909,11.762-12.909,11.762
				s-11.069,10.169-18.644,9.961c-7.567-0.208-16.504-5.181-16.504-5.181s-28.928-0.416-31.653-2.186
				c-1.178-0.77-2.148-2.071-2.825-3.695c-0.901-2.125-1.324-4.788-1.132-7.49c0.339-4.78,3.141-50.204,3.141-50.204
				s-47.117-50.204-48.095-54.23c-0.97-4.018,8.768-35.132,10.461-39.943c1.686-4.803,5.827-9.922,5.827-9.922h14.633
				c0,0,2.71,6.443,1.54,10.538c-1.178,4.095-3.564,34.447-3.564,34.447l50.366,18.928c2.163-1.763,8.106-2.132,8.383-2.148
				c0.008,0,0.008,0,0.008,0c0.231,0.1,2.756-0.123,5.82-0.416c7.467-0.716,14.91,1.555,20.707,6.312
				c0.539,0.116,1.747,0.624,1.747,0.624s13.748,11.523,16.612,18.344C354.929,220.941,354.729,269.513,353.836,272.238z"/>
		</g>
		<g>
			<path style="fill:#E8A03F;" d="M330.766,200.503c1.201-1.224,2.04-2.248,2.455-2.779
				C332.706,198.664,331.844,199.603,330.766,200.503z"/>
		</g>
		<g>
			<path style="fill:#E8A03F;" d="M333.776,195.792c0,0.416-0.085,0.839-0.239,1.255l0.169-1.894
				C333.753,195.369,333.776,195.585,333.776,195.792z"/>
		</g>
		<g>
			<g>
				<path style="fill:#222A40;" d="M284.732,462.771c-2.764,1.231-17.776,1.357-19.925-0.86c-2.149-2.217,0-6.026,0-6.026
					s7.501-13.654,8.732-16.486c1.23-2.832-1.593-13.393-1.593-13.393l19.832-7.763c0,0,6.119,8.858,6.616,10.822
					C298.883,431.038,287.505,461.541,284.732,462.771z"/>
			</g>
			<g>
				<path style="fill:#222A40;" d="M349.484,460.895c-0.801,3.439-22.015,2.394-25.707,2.225
					c-3.692-0.168-13.165-26.339-13.165-30.772c0-3.27,4.231-10.375,6.439-13.857c3.591,2.546,11.952,7.628,20.414,6.819
					l-2.124,8.884C335.341,434.194,350.284,457.448,349.484,460.895z"/>
			</g>
			<g>
				<path style="fill:#6455E7;" d="M369.585,342.441c0.223,9.322-31.414,83.812-31.414,83.812c-0.931,0.262-1.871,0.439-2.81,0.531
					h-0.008c-7.729,0.739-15.365-3.903-18.644-6.227c-1.07-0.762-1.678-1.27-1.678-1.27l16.627-67.408l-25.841-21.122l-23.37,26.511
					l12.586,61.343l-3.164,1.239l-18.113,7.09l-4.565,1.786c0,0-31.391-80.217-31.052-89.208
					c0.323-8.583,25.225-46.81,27.473-50.235c0.677,1.624,1.647,2.925,2.825,3.695c2.725,1.771,31.653,2.186,31.653,2.186
					s8.937,4.973,16.504,5.181c7.575,0.208,18.644-9.961,18.644-9.961s7.436-6.474,12.909-11.762
					C353.944,293.761,369.401,334.858,369.585,342.441z"/>
			</g>
			<g>
				<path style="fill:#222A40;" d="M307.824,325.655c-0.184,0-0.36-0.102-0.447-0.277c-0.123-0.247-0.023-0.547,0.225-0.67
					l25.142-12.518c0.245-0.124,0.548-0.023,0.67,0.225c0.123,0.247,0.022,0.547-0.225,0.67l-25.142,12.518
					C307.975,325.639,307.899,325.655,307.824,325.655z"/>
			</g>
			<g>
				<path style="fill:#222A40;" d="M309.212,328.438c-0.24,0-0.452-0.174-0.492-0.419c-0.045-0.273,0.14-0.529,0.412-0.574
					l9.737-1.604c0.267-0.05,0.53,0.139,0.574,0.412c0.045,0.272-0.14,0.529-0.412,0.574l-9.737,1.604
					C309.266,328.436,309.239,328.438,309.212,328.438z"/>
			</g>
			<g>
				<path style="fill:#222A40;" d="M303.435,328.438c-0.075,0-0.151-0.017-0.223-0.052l-17.012-8.452
					c-0.247-0.123-0.348-0.424-0.226-0.671c0.124-0.247,0.426-0.348,0.671-0.225l17.012,8.452c0.247,0.123,0.348,0.424,0.226,0.671
					C303.796,328.336,303.619,328.438,303.435,328.438z"/>
			</g>
			<g>
				<path style="fill:#222A40;" d="M282.448,357.766c-0.036,0-0.073-0.004-0.11-0.013l-7.152-1.616
					c-0.27-0.061-0.438-0.328-0.377-0.598c0.06-0.27,0.325-0.441,0.598-0.377l7.152,1.616c0.27,0.06,0.439,0.328,0.377,0.598
					C282.884,357.608,282.677,357.766,282.448,357.766z"/>
			</g>
			<g>
				<path style="fill:#222A40;" d="M331.659,352.378c-0.204,0-0.397-0.126-0.47-0.33c-0.095-0.26,0.04-0.546,0.3-0.64l7.619-2.756
					c0.257-0.094,0.546,0.039,0.64,0.3c0.095,0.26-0.04,0.546-0.3,0.64l-7.619,2.756
					C331.773,352.368,331.716,352.378,331.659,352.378z"/>
			</g>
			<g>
				<path style="fill:#222A40;" d="M245.327,348.206c-0.199,0-0.388-0.12-0.465-0.316c-0.102-0.257,0.024-0.548,0.281-0.648
					c3.669-1.447,6.819-4.099,8.871-7.467c0.144-0.237,0.452-0.312,0.687-0.167c0.236,0.143,0.311,0.451,0.167,0.686
					c-2.163,3.554-5.487,6.352-9.357,7.877C245.45,348.195,245.388,348.206,245.327,348.206z"/>
			</g>
			<g>
				<path style="fill:#222A40;" d="M362.403,347.564c-0.078,0-0.157-0.018-0.231-0.057c-3.108-1.621-5.879-3.948-8.011-6.731
					c-0.168-0.219-0.127-0.532,0.093-0.7c0.216-0.17,0.532-0.129,0.7,0.093c2.045,2.667,4.7,4.898,7.681,6.452
					c0.244,0.128,0.34,0.43,0.212,0.675C362.758,347.466,362.583,347.564,362.403,347.564z"/>
			</g>
		</g>
		<g>
			<path style="fill:#222A40;" d="M345.585,154.802c-1.24,3.929-3.684,7.563-3.943,11.657c-0.476-0.541-1.06-0.98-1.708-1.276
				c-0.613-0.26-1.29-0.396-1.954-0.382c0,0-4.845-6.416-4.225-15.269c-4.556,1.947-9.531,2.884-14.483,2.725
				c1.045-1.99,2.566-3.727,4.398-5.032c-4.866,2.545-10.504,3.583-15.961,2.963c-0.469,1.117-0.815,2.292-1.038,3.525l-0.014-0.007
				c0,0-0.368,1.478-0.887,3.669c-1.168-2.495-1.478-6.034-1.045-8.752c0.44-2.725,1.485-5.32,2.711-7.786
				c0.937-1.867,2.105-3.799,4.016-4.643c1.377-0.606,2.949-0.555,4.448-0.498c4.289,0.18,8.579,0.361,12.875,0.541
				c1.384,0.05,2.804,0.115,4.095,0.634c1.817,0.728,3.194,2.285,4.088,4.023c0.836,1.622,1.298,3.41,1.737,5.183l0.252-0.065
				c1.449,0.411,2.927,0.829,4.217,1.6c1.298,0.779,2.415,1.968,2.768,3.439C346.227,152.286,345.96,153.591,345.585,154.802z"/>
		</g>
		<g>
			<path style="fill:#E48C59;" d="M333.481,179.075l-1.435,16.538l-0.18,2.047c0,0-7.894,10.893-18.657,11.052
				c0,0-4.679-6.878-6.005-13.157c16.451,0.663,20.784-8.579,20.907-8.86c0.007-0.007,0.007-0.007,0.007-0.007
				C330.294,184.922,332.277,182.478,333.481,179.075z"/>
		</g>
		<g>
			<path style="fill:#222A40;" d="M328.11,186.695c-0.122,0.281-4.455,9.523-20.907,8.86l1.99-4.83
				c3.035,0.757,7.094,1.067,8.37,0.678C318.824,191.014,323.835,190.163,328.11,186.695z"/>
		</g>
		<g>
			<path style="fill:#E48C59;" d="M342.737,172.94c-0.67,2.09-2.134,3.907-4.037,5.003c-1.564,0.908-3.417,1.305-5.22,1.132
				c-1.204,3.403-3.186,5.847-5.364,7.613c0,0,0,0-0.007,0.007c-4.275,3.468-9.285,4.318-10.547,4.708
				c-1.276,0.389-5.335,0.079-8.37-0.678c-0.75-0.18-1.427-0.396-1.99-0.634c0,0,0,0-0.007,0c-0.598-0.245-1.052-0.519-1.319-0.815
				c-1.543-1.716-3.172-10.223-3.172-15.038c0.007-3.323,1.903-11.917,3.064-16.862c0.519-2.191,0.887-3.669,0.887-3.669
				l0.014,0.007c0.224-1.233,0.57-2.408,1.038-3.525c5.457,0.62,11.095-0.418,15.961-2.963c-1.831,1.305-3.352,3.042-4.398,5.032
				c4.953,0.158,9.927-0.779,14.483-2.725c-0.62,8.853,4.225,15.269,4.225,15.269c0.663-0.014,1.341,0.123,1.954,0.382
				c0.649,0.296,1.233,0.735,1.708,1.276c0.519,0.591,0.923,1.298,1.168,2.047C343.263,169.934,343.177,171.513,342.737,172.94z"/>
		</g>
		<g>
			<g>
				<path style="fill:#E07045;" d="M315.205,160.284c0,0,0.597,3.29-0.242,6.945c-0.839,3.655-3.469,5.47-4.625,4.995
					c-1.156-0.475-3.012-2.606-2.405-4.458c0,0,0.753-1.173,1.902-1.977C310.985,164.984,315.205,160.284,315.205,160.284z"/>
			</g>
			<g>
				<path style="fill:#222A40;" d="M311.634,173.673c-0.09,0-0.18-0.024-0.262-0.074c-1.582-0.971-2.892-2.359-3.787-4.015
					c-0.554-1.024-0.27-2.333,0.675-3.111c2.721-2.242,5.208-4.775,7.393-7.529c0.173-0.216,0.486-0.253,0.702-0.081
					c0.217,0.171,0.253,0.486,0.081,0.702c-2.229,2.809-4.765,5.392-7.539,7.679c-0.577,0.476-0.759,1.259-0.432,1.864
					c0.812,1.501,1.998,2.759,3.431,3.638c0.235,0.145,0.309,0.453,0.164,0.688C311.966,173.589,311.802,173.673,311.634,173.673z"
					/>
			</g>
			<g>
				<path style="fill:#222A40;" d="M320.428,162.417c-0.189,1.393,0.64,2.655,1.852,2.819c1.212,0.164,2.347-0.831,2.536-2.224
					c0.189-1.393-0.64-2.655-1.852-2.819C321.752,160.029,320.617,161.025,320.428,162.417z"/>
			</g>
			<g>
				<path style="fill:#222A40;" d="M306.624,160.546c-0.189,1.393,0.64,2.655,1.852,2.819c1.212,0.164,2.347-0.831,2.536-2.224
					c0.189-1.393-0.64-2.655-1.852-2.819C307.948,158.158,306.813,159.153,306.624,160.546z"/>
			</g>
			<g>
				<path style="fill:#222A40;" d="M322.705,154.741c1.877,0.417,3.606,1.142,5.221,2.184c0.291,0.188,0.503,0.623,0.547,0.954
					c0.049,0.359-0.057,0.814-0.297,1.094c-0.241,0.282-0.574,0.513-0.954,0.547c-0.411,0.037-0.749-0.074-1.094-0.297
					c-0.087-0.056-0.176-0.109-0.263-0.163c-0.992-0.571-2.048-1.016-3.149-1.329c-0.134-0.034-0.268-0.069-0.403-0.099
					c-0.385-0.086-0.719-0.239-0.965-0.562c-0.217-0.285-0.35-0.722-0.285-1.08C321.195,155.266,321.908,154.564,322.705,154.741z"
					/>
			</g>
			<g>
				<path style="fill:#222A40;" d="M305.822,155.942c0.078,0.362,0.417,0.648,0.774,0.781c0.386,0.145,0.741,0.128,1.134,0.006
					c0.099-0.031,0.198-0.058,0.297-0.087c1.108-0.286,2.244-0.434,3.389-0.443c0.138,0.003,0.276,0.005,0.415,0.012
					c0.394,0.02,0.757-0.039,1.08-0.285c0.285-0.217,0.529-0.603,0.562-0.965c0.066-0.733-0.433-1.6-1.25-1.642
					c-1.92-0.098-3.779,0.14-5.614,0.715C306.609,154.035,305.517,154.534,305.822,155.942z"/>
			</g>
			<g>
				<path style="fill:#FFFFFF;" d="M308.328,177.59c0.595,1.582,2.246,4.5,6.311,4.374c3.709-0.101,5.06-3.333,5.497-5.04
					c0.145-0.525-0.273-1.023-0.808-0.993l-10.301,0.62C308.494,176.582,308.143,177.108,308.328,177.59z"/>
			</g>
			<g>
				<path style="fill:#222A40;" d="M334.919,176.697c-0.036,0-0.074-0.004-0.112-0.013c-0.268-0.062-0.436-0.33-0.375-0.599
					c0.718-3.126,2.803-5.953,5.578-7.561c0.236-0.139,0.544-0.058,0.684,0.182c0.139,0.239,0.057,0.545-0.182,0.684
					c-2.54,1.473-4.448,4.06-5.105,6.92C335.353,176.54,335.147,176.697,334.919,176.697z"/>
			</g>
		</g>
		<g>
			<path style="fill:#222A40;" d="M338.35,147.669c-0.26,0-0.479-0.202-0.498-0.465c-0.272-3.896-0.758-7.902-3.381-10.315
				c-2.908-2.676-7.372-2.453-10.605-1.797c-1.141,0.232-2.3,0.533-3.421,0.824c-2.623,0.681-5.341,1.396-8.11,1.297
				c-0.276-0.008-0.493-0.239-0.484-0.515c0.009-0.275,0.252-0.503,0.516-0.484c2.629,0.081,5.273-0.604,7.828-1.266
				c1.134-0.294,2.306-0.598,3.473-0.835c3.462-0.705,8.264-0.921,11.482,2.04c2.893,2.661,3.414,6.884,3.701,10.982
				c0.018,0.275-0.189,0.514-0.464,0.534C338.375,147.668,338.362,147.669,338.35,147.669z"/>
		</g>
		<g>
			<path style="fill:#222A40;" d="M236.932,176.642c-0.198,0-0.385-0.118-0.463-0.313c-0.104-0.256,0.02-0.547,0.276-0.651
				c3.347-1.354,6.817-2.486,10.316-3.367c0.27-0.07,0.54,0.096,0.607,0.363c0.067,0.268-0.096,0.539-0.363,0.607
				c-3.455,0.869-6.882,1.987-10.186,3.324C237.058,176.63,236.995,176.642,236.932,176.642z"/>
		</g>
		<g>
			<path style="fill:#222A40;" d="M269.552,229.974c-0.234,0-0.443-0.166-0.49-0.405l-4.34-22.441
				c-0.052-0.271,0.125-0.533,0.396-0.585c0.267-0.052,0.532,0.124,0.586,0.396l4.34,22.441c0.052,0.27-0.125,0.533-0.397,0.586
				C269.616,229.971,269.585,229.974,269.552,229.974z"/>
		</g>
		<g>
			<path style="fill:#222A40;" d="M266.313,226.541c-0.19,0-0.372-0.109-0.455-0.294l-6.002-13.263
				c-0.114-0.251-0.003-0.548,0.249-0.662c0.249-0.114,0.548-0.002,0.661,0.249l6.002,13.263c0.114,0.252,0.003,0.548-0.249,0.661
				C266.453,226.527,266.383,226.541,266.313,226.541z"/>
		</g>
		<g>
			<path style="fill:#222A40;" d="M310.719,209.809c-0.129,0-0.257-0.049-0.354-0.147c-4.058-4.08-7.701-8.6-10.829-13.435
				c-0.149-0.232-0.084-0.542,0.148-0.691c0.23-0.149,0.541-0.084,0.691,0.148c3.09,4.776,6.689,9.242,10.698,13.273
				c0.194,0.196,0.194,0.512-0.002,0.707C310.974,209.76,310.848,209.809,310.719,209.809z"/>
		</g>
		<g>
			<path style="fill:#222A40;" d="M316.007,211.444c-0.211,0-0.407-0.135-0.476-0.346c-0.085-0.263,0.059-0.544,0.322-0.629
				c7.771-2.513,15.134-6.123,21.883-10.729c0.23-0.154,0.54-0.097,0.695,0.131c0.155,0.228,0.097,0.539-0.131,0.695
				c-6.828,4.66-14.277,8.313-22.141,10.854C316.109,211.436,316.057,211.444,316.007,211.444z"/>
		</g>
		<g>
			<path style="fill:#222A40;" d="M328.11,252.718c-0.271,0-0.493-0.216-0.5-0.487c-0.004-0.146-0.348-14.68,1.777-23.438
				c0.065-0.268,0.334-0.427,0.605-0.368c0.268,0.065,0.433,0.336,0.368,0.604c-2.095,8.628-1.754,23.031-1.75,23.176
				c0.007,0.276-0.211,0.506-0.487,0.513C328.119,252.718,328.114,252.718,328.11,252.718z"/>
		</g>
		<g>
			<path style="fill:#222A40;" d="M303.915,231.374c-0.055,0-0.109-0.009-0.164-0.027c-0.261-0.091-0.398-0.376-0.309-0.637
				c2.237-6.452,4.875-12.838,7.841-18.979c0.12-0.249,0.419-0.352,0.668-0.233c0.248,0.12,0.353,0.419,0.232,0.667
				c-2.948,6.106-5.571,12.456-7.796,18.872C304.315,231.244,304.122,231.374,303.915,231.374z"/>
		</g>
		<g>
			<path style="fill:#222A40;" d="M318.351,235.396c-0.221,0-0.422-0.146-0.482-0.369l-6.157-22.715
				c-0.072-0.267,0.085-0.541,0.352-0.613c0.271-0.073,0.541,0.085,0.613,0.352l6.157,22.715c0.072,0.267-0.085,0.541-0.352,0.613
				C318.438,235.39,318.394,235.396,318.351,235.396z"/>
		</g>
		<g>
			<path style="fill:#222A40;" d="M303.97,229.782c-1.981,0-1.985,3.079,0,3.079C305.952,232.861,305.955,229.782,303.97,229.782z"
				/>
		</g>
		<g>
			<path style="fill:#222A40;" d="M318.807,233.634c-1.981,0-1.985,3.079,0,3.079C320.788,236.713,320.791,233.634,318.807,233.634z
				"/>
		</g>
		<g>
			<path style="fill:#222A40;" d="M307.825,299.034c-0.034,0-0.067-0.003-0.102-0.011c-8.81-1.815-19.586-12.019-20.04-12.452
				c-0.2-0.19-0.208-0.507-0.017-0.706c0.19-0.201,0.508-0.207,0.706-0.017c0.109,0.104,11.023,10.439,19.552,12.196
				c0.271,0.056,0.445,0.319,0.389,0.59C308.265,298.871,308.056,299.034,307.825,299.034z"/>
		</g>
		<g>
			<path style="fill:#E48C59;" d="M296.947,253.977c0,0-2.874-1.776-6.916-2.092c-4.042-0.316-20.596,2.064-22.839,2.647
				c-2.242,0.583-12.753,10.668-14.092,11.499c-1.339,0.831-3.05,4.503-2.15,6.198c0.9,1.694,4.281,0.297,4.281,0.297
				s1.723,0.945,3.282,0.86c1.559-0.086,11.769-5.448,11.769-5.448s-6.489,3.697-6.375,4.611c0.114,0.914,1.19,1.801,3.291,0.964
				c2.101-0.837,14.187-5.346,14.187-5.346s8.032,0.998,10.955-1.607L296.947,253.977z"/>
		</g>
		<g>
			<path style="fill:#222A40;" d="M333.656,249.904c-0.246,0-0.46-0.182-0.494-0.432c-0.038-0.274,0.153-0.526,0.427-0.564
				l8.018-1.099c0.267-0.038,0.525,0.152,0.563,0.427c0.038,0.274-0.153,0.526-0.427,0.564l-8.018,1.099
				C333.702,249.902,333.678,249.904,333.656,249.904z"/>
		</g>
		<g>
			<path style="fill:#222A40;" d="M264.613,272.144c-0.172,0-0.339-0.089-0.432-0.248c-0.14-0.238-0.059-0.545,0.18-0.684l7.49-4.37
				c0.237-0.142,0.544-0.059,0.684,0.18c0.14,0.238,0.059,0.545-0.18,0.684l-7.49,4.37
				C264.786,272.122,264.699,272.144,264.613,272.144z"/>
		</g>
		<g>
			<path style="fill:#222A40;" d="M255.231,273.026c-0.151,0-0.301-0.068-0.399-0.198c-0.166-0.221-0.122-0.534,0.098-0.701
				c0.335-0.252,8.23-6.203,10.93-7.353c2.681-1.143,5.603-1.868,5.726-1.898c0.275-0.067,0.54,0.098,0.605,0.365
				c0.066,0.269-0.098,0.539-0.365,0.605c-0.03,0.008-2.97,0.738-5.573,1.848c-2.589,1.103-10.639,7.171-10.719,7.232
				C255.442,272.992,255.337,273.026,255.231,273.026z"/>
		</g>
		<g>
			<path style="fill:#222A40;" d="M250.772,270.684c-0.155,0-0.309-0.072-0.406-0.209c-0.161-0.225-0.109-0.537,0.115-0.697
				c0.403-0.289,9.906-7.095,11.506-7.944c1.618-0.858,6.238-2.15,6.435-2.205c0.267-0.076,0.541,0.081,0.615,0.348
				c0.074,0.266-0.081,0.541-0.348,0.615c-0.047,0.014-4.711,1.317-6.233,2.125c-1.54,0.818-11.294,7.804-11.393,7.874
				C250.975,270.654,250.874,270.684,250.772,270.684z"/>
		</g>
		<g>
			<path style="fill:#E8A03F;" d="M335.213,250.704c0,0-34.189,1.075-38.208,1.196c-4.019,0.121-4.96,1.932-4.96,1.932l-2.408,13.18
				c0,0,6.164,4.702,16.05,8.449c9.886,3.748,34.459,1.913,38.494,1.21C348.217,275.968,350.682,252.691,335.213,250.704z"/>
		</g>
		<g>
			<path style="fill:#222A40;" d="M345.708,258.686c-0.233,0-0.441-0.164-0.489-0.401c-1.327-6.618-9.938-7.076-10.026-7.08
				c-0.017,0.001-33.797,1.061-38.171,1.195c-3.882,0.12-4.499,1.585-4.505,1.601c-0.098,0.251-0.384,0.383-0.636,0.296
				c-0.255-0.091-0.394-0.36-0.311-0.618c0.07-0.218,0.823-2.136,5.42-2.278c4.378-0.135,38.208-1.195,38.208-1.195
				c0.132,0.005,9.52,0.492,11.001,7.883c0.055,0.271-0.121,0.534-0.392,0.589C345.774,258.683,345.741,258.686,345.708,258.686z"/>
		</g>
		<g>
			<path style="fill:#222A40;" d="M322.596,277.785c-3.397,0-6.771-0.063-9.767-0.226c-12.511-0.681-23.411-10.076-23.521-10.171
				c-0.208-0.182-0.229-0.497-0.048-0.706c0.181-0.209,0.498-0.228,0.706-0.048c0.105,0.093,10.756,9.265,22.917,9.927
				c12.313,0.67,31.081-0.379,31.27-0.39c0.31-0.022,0.513,0.196,0.527,0.471c0.016,0.275-0.195,0.512-0.471,0.527
				C344.068,277.178,333.223,277.785,322.596,277.785z"/>
		</g>
	</g>
	<g>
		<g>
			<rect x="127.352" y="274.748" style="fill:#A0A8FB;" width="287.509" height="9.177"/>
		</g>
		<g>
			<polygon style="fill:#222A40;" points="130.317,283.926 93.65,464.887 97.667,464.887 142.828,283.856 			"/>
		</g>
		<g>
			<polygon style="fill:#222A40;" points="412.705,283.926 449.372,464.887 445.355,464.887 400.194,283.856 			"/>
		</g>
		<g>
			<rect x="127.352" y="283.926" style="fill:#222A40;" width="287.509" height="3.841"/>
		</g>
	</g>
	<g>
		<g>
			
				<rect x="177.144" y="272.023" transform="matrix(-1 -1.224647e-16 1.224647e-16 -1 462.3944 546.8948)" style="fill:#858CB6;" width="108.106" height="2.848"/>
		</g>
		<g>
			<polygon style="fill:#858CB6;" points="167.673,213.918 263.186,213.918 272.658,272.023 177.144,272.023 			"/>
		</g>
		<g>
			<path style="fill:#222A40;" d="M272.658,272.524h-95.514c-0.276,0-0.5-0.224-0.5-0.5s0.224-0.5,0.5-0.5h95.514
				c0.276,0,0.5,0.224,0.5,0.5S272.934,272.524,272.658,272.524z"/>
		</g>
	</g>
	<g>
		<g>
			<path style="fill:#222A40;" d="M255.537,46.14c-0.007,0-0.014,0-0.022,0c-0.275-0.012-0.489-0.245-0.478-0.521l1.029-24.461
				c0.012-0.276,0.201-0.499,0.522-0.479c0.275,0.012,0.489,0.245,0.478,0.521l-1.029,24.461
				C256.025,45.93,255.803,46.14,255.537,46.14z"/>
		</g>
		<g>
			<path style="fill:#222A40;" d="M249.356,46.416c-0.201,0-0.391-0.122-0.467-0.321l-5.908-15.455
				c-0.099-0.258,0.03-0.547,0.288-0.646c0.256-0.097,0.547,0.03,0.646,0.288l5.908,15.455c0.099,0.258-0.03,0.547-0.288,0.646
				C249.476,46.405,249.416,46.416,249.356,46.416z"/>
		</g>
		<g>
			<path style="fill:#222A40;" d="M244.474,48.649c-0.128,0-0.256-0.049-0.353-0.147l-6.803-6.819
				c-0.195-0.195-0.195-0.512,0.001-0.707c0.196-0.194,0.512-0.195,0.707,0.001l6.803,6.819c0.195,0.195,0.195,0.512,0,0.707
				C244.73,48.6,244.602,48.649,244.474,48.649z"/>
		</g>
		<g>
			<path style="fill:#222A40;" d="M261.885,47.268c-0.065,0-0.131-0.013-0.194-0.04c-0.255-0.107-0.374-0.401-0.267-0.655
				l6.351-15.029c0.108-0.255,0.403-0.373,0.655-0.266c0.255,0.107,0.374,0.401,0.267,0.655l-6.351,15.03
				C262.264,47.153,262.079,47.268,261.885,47.268z"/>
		</g>
		<g>
			<path style="fill:#222A40;" d="M265.896,48.933c-0.114,0-0.23-0.039-0.323-0.119c-0.211-0.179-0.236-0.494-0.058-0.705
				l4.978-5.86c0.179-0.209,0.495-0.236,0.704-0.058c0.211,0.179,0.236,0.495,0.058,0.705l-4.978,5.86
				C266.178,48.873,266.038,48.933,265.896,48.933z"/>
		</g>
	</g>
	<g>
		<g>
			<g>
				<g>
					
						<ellipse transform="matrix(0.9214 -0.3887 0.3887 0.9214 -1.3272 140.271)" style="fill:#C1C9FC;" cx="346.057" cy="73.416" rx="25.323" ry="25.322"/>
				</g>
			</g>
			<g>
				<g>
					<path style="fill:#A0A8FB;" d="M346.057,100.206c-14.771,0-26.789-12.018-26.789-26.789c0-14.771,12.018-26.789,26.789-26.789
						c14.772,0,26.79,12.018,26.79,26.789C372.847,88.188,360.829,100.206,346.057,100.206z M346.057,49.561
						c-13.154,0-23.855,10.701-23.855,23.856s10.701,23.855,23.855,23.855c13.154,0,23.856-10.701,23.856-23.855
						S359.211,49.561,346.057,49.561z"/>
				</g>
			</g>
		</g>
		<g>
			<g>
				<path style="fill:#A0A8FB;" d="M346.057,94.306c-0.405,0-0.733-0.328-0.733-0.733v-5.988c0-0.405,0.328-0.734,0.733-0.734
					c0.405,0,0.734,0.328,0.734,0.734v5.988C346.791,93.978,346.463,94.306,346.057,94.306z"/>
			</g>
		</g>
		<g>
			<g>
				<path style="fill:#A0A8FB;" d="M346.057,59.981c-0.405,0-0.733-0.328-0.733-0.734V53.26c0-0.406,0.328-0.734,0.733-0.734
					c0.405,0,0.734,0.328,0.734,0.734v5.987C346.791,59.653,346.463,59.981,346.057,59.981z"/>
			</g>
		</g>
		<g>
			<g>
				<path style="fill:#A0A8FB;" d="M331.888,74.15h-5.987c-0.405,0-0.733-0.328-0.733-0.734c0-0.405,0.328-0.733,0.733-0.733h5.987
					c0.406,0,0.734,0.328,0.734,0.733C332.622,73.822,332.294,74.15,331.888,74.15z"/>
			</g>
		</g>
		<g>
			<g>
				<path style="fill:#A0A8FB;" d="M366.213,74.15h-5.988c-0.405,0-0.733-0.328-0.733-0.734c0-0.405,0.328-0.733,0.733-0.733h5.988
					c0.405,0,0.733,0.328,0.733,0.733C366.947,73.822,366.619,74.15,366.213,74.15z"/>
			</g>
		</g>
		<g>
			<g>
				<path style="fill:#A0A8FB;" d="M331.804,88.402c-0.188,0-0.375-0.072-0.519-0.215c-0.286-0.286-0.286-0.75,0-1.037l4.234-4.233
					c0.286-0.287,0.751-0.287,1.037,0c0.286,0.286,0.286,0.751,0,1.037l-4.234,4.233C332.18,88.33,331.992,88.402,331.804,88.402z"
					/>
			</g>
		</g>
		<g>
			<g>
				<path style="fill:#A0A8FB;" d="M356.076,64.131c-0.188,0-0.375-0.072-0.519-0.215c-0.286-0.286-0.286-0.751,0-1.037l4.233-4.234
					c0.286-0.287,0.751-0.287,1.037,0c0.286,0.286,0.286,0.751,0,1.037l-4.233,4.234C356.451,64.059,356.264,64.131,356.076,64.131z
					"/>
			</g>
		</g>
		<g>
			<g>
				<path style="fill:#A0A8FB;" d="M336.038,64.131c-0.188,0-0.375-0.072-0.519-0.215l-4.234-4.234
					c-0.286-0.286-0.286-0.751,0-1.037c0.287-0.287,0.751-0.287,1.037,0l4.234,4.234c0.286,0.287,0.286,0.751,0,1.037
					C336.414,64.059,336.226,64.131,336.038,64.131z"/>
			</g>
		</g>
		<g>
			<g>
				<path style="fill:#A0A8FB;" d="M360.309,88.402c-0.188,0-0.375-0.072-0.519-0.215l-4.233-4.233
					c-0.286-0.287-0.286-0.751,0-1.037c0.286-0.287,0.751-0.287,1.037,0l4.233,4.233c0.286,0.287,0.286,0.751,0,1.037
					C360.685,88.33,360.497,88.402,360.309,88.402z"/>
			</g>
		</g>
		<g>
			<g>
				<g>
					<path style="fill:#7F85FA;" d="M346.057,76.16c-0.377,0-0.751-0.115-1.068-0.338c-0.492-0.347-0.785-0.912-0.785-1.514v-17.34
						c0-1.023,0.83-1.853,1.853-1.853s1.853,0.83,1.853,1.853v14.71l8.57-3.063c0.961-0.347,2.024,0.156,2.367,1.121
						c0.345,0.963-0.157,2.024-1.121,2.367l-11.047,3.949C346.478,76.124,346.267,76.16,346.057,76.16z"/>
				</g>
			</g>
		</g>
	</g>
</g>
</svg>
